<?xml version="1.0" encoding="UTF-8"?>
<svg width="50px" height="41px" viewBox="0 0 50 41" version="1.1" xmlns="http://www.w3.org/2000/svg" xmlns:xlink="http://www.w3.org/1999/xlink">
    <!-- Generator: Sketch 46.1 (44463) - http://www.bohemiancoding.com/sketch -->
    <title>beans</title>
    <desc>Created with Sketch.</desc>
    <defs></defs>
    <g id="Page-1" stroke="none" stroke-width="1" fill="none" fill-rule="evenodd">
        <g id="beans" stroke="#000000">
            <g transform="translate(1.000000, 1.000000)" id="Shape">
                <path d="M36.3730621,9.20518756 C30.6180621,9.20518756 25.9350621,16.1061876 25.9350621,24.5871876 C25.9350621,33.0681876 30.6180621,39.9691876 36.3730621,39.9691876 C42.1280621,39.9691876 46.8110621,33.0691876 46.8110621,24.5871876 C46.8110621,16.1061876 42.1280621,9.20518756 36.3730621,9.20518756 Z M27.5520621,24.5871876 C27.5520621,17.6221876 30.8860621,11.8641876 35.1940621,10.9601876 C36.5630621,12.9301876 37.4590621,14.7121876 37.6920621,17.1341876 C38.0190621,20.5281876 36.9480621,22.6121876 35.4660621,25.4961876 C35.2500621,25.9181876 35.0260621,26.3541876 34.7990621,26.8091876 C33.6910621,29.0291876 33.1640621,32.3081876 33.5190621,34.7831876 C33.6610621,35.7751876 34.1760621,37.0171876 34.9370621,38.1541876 C30.7550621,37.0791876 27.5520621,31.4141876 27.5520621,24.5871876 Z M37.0890621,38.2951876 C36.0850621,37.2271876 35.2880621,35.7431876 35.1170621,34.5541876 C34.8100621,32.4081876 35.2830621,29.4531876 36.2440621,27.5301876 C36.4680621,27.0821876 36.6880621,26.6511876 36.9030621,26.2351876 C38.4500621,23.2241876 39.6720621,20.8451876 39.3000621,16.9801876 C39.0680621,14.5691876 38.2810621,12.7501876 37.0810621,10.8781876 C41.6150621,11.4441876 45.1940621,17.3701876 45.1940621,24.5871876 C45.1950621,31.8011876 41.6190621,37.7241876 37.0890621,38.2951876 Z" transform="translate(36.373062, 24.587188) rotate(35.000000) translate(-36.373062, -24.587188) "></path>
                <path d="M21.011,0.876 C14.562,-0.877 8.348,1.258 7.158,5.635 C5.969,10.011 10.247,14.997 16.697,16.75 C23.146,18.503 29.361,16.368 30.551,11.992 C31.74,7.615 27.46,2.63 21.011,0.876 Z M17.031,15.521 C11.546,14.031 7.779,10.087 8.281,6.525 C9.302,5.982 10.595,5.682 11.534,5.798 C13.23,6.008 15.379,6.98 16.642,8.107 C16.939,8.369 17.219,8.627 17.492,8.876 C19.461,10.675 21.017,12.095 24.034,12.611 C25.916,12.932 27.463,12.712 29.133,12.184 C27.766,15.515 22.52,17.013 17.031,15.521 Z M24.25,11.356 C21.602,10.904 20.237,9.658 18.351,7.935 C18.075,7.682 17.789,7.422 17.491,7.157 C16.032,5.854 13.646,4.778 11.691,4.535 C10.908,4.438 9.857,4.574 8.835,4.918 C10.517,1.96 15.487,0.694 20.679,2.105 C25.974,3.544 29.665,7.27 29.462,10.733 C27.68,11.366 26.141,11.68 24.25,11.356 Z"></path>
                <path d="M16.0676608,35.2552035 C21.0136608,30.7612035 22.5556608,24.3742035 19.5056608,21.0182035 C16.4556608,17.6622035 9.9506608,18.5872035 5.0046608,23.0822035 C0.0586608,27.5762035 -1.4843392,33.9642035 1.5656608,37.3202035 C4.6156608,40.6762035 11.1206608,39.7502035 16.0676608,35.2552035 Z M15.2096608,34.3132035 C11.1476608,38.0032035 6.0216608,39.1112035 3.2126608,37.0782035 C3.6356608,35.2362035 4.2006608,33.7692035 5.4896608,32.3492035 C7.2956608,30.3602035 9.0786608,29.8802035 11.5466608,29.2162035 C11.9076608,29.1182035 12.2806608,29.0182035 12.6666608,28.9082035 C14.5486608,28.3792035 16.7396608,26.9462035 17.9956608,25.4292035 C18.4986608,24.8202035 18.9496608,23.8622035 19.2096608,22.8162035 C20.7976608,25.8242035 19.1916608,30.6952035 15.2096608,34.3132035 Z M5.8606608,24.0232035 C10.0666608,20.2002035 15.4176608,19.1472035 18.1516608,21.4852035 C18.0596608,22.6372035 17.6176608,23.8892035 17.0136608,24.6182035 C15.9256608,25.9352035 13.9506608,27.2242035 12.3196608,27.6832035 C11.9406608,27.7922035 11.5716608,27.8902035 11.2156608,27.9872035 C8.6396608,28.6792035 6.6056608,29.2282035 4.5476608,31.4932035 C3.2646608,32.9072035 2.6206608,34.3302035 2.1656608,36.0212035 C0.0926608,33.0772035 1.6516608,27.8482035 5.8606608,24.0232035 Z"></path>
            </g>
        </g>
    </g>
</svg>